<?xml version="1.0" encoding="utf-8"?>
<!-- Generator: Adobe Illustrator 27.9.6, SVG Export Plug-In . SVG Version: 9.03 Build 54986)  -->
<svg version="1.1" id="Lager_1" xmlns="http://www.w3.org/2000/svg" xmlns:xlink="http://www.w3.org/1999/xlink" x="0px" y="0px"
	 viewBox="0 0 1500 273.9" style="enable-background:new 0 0 1500 273.9;" xml:space="preserve">
<style type="text/css">
	.st0{fill:#005EA8;}
</style>
<g>
	<path class="st0" d="M237.9,12.6h-89.8v8.9l1.8,0.3c19.6,3,28.5,6.5,32,12.6c1.3,2.2,1.9,4.9,1.9,8.2c0,11.3-7.2,29.4-19,58.8
		c0,0-28.2,71.2-35.8,90.3c-3.6-9.2-47.8-121.4-47.8-121.4l-1.9-4.7c-3.2-8-6.8-16.7-6.8-24.1c0-3.1,0.6-5.9,2.1-8.4
		c3.6-6,12.5-9.8,26.3-11.3l1.9-0.2v-9H0v8.9l1.9,0.2c25.4,3,32.5,21.2,41.4,44.2l1,2.6L115.1,247h7.2l59.9-150.7l2.8-6.8
		c17.1-42.2,26.5-65.5,53-67.9l1.9-0.2v-9h-2V12.6z"/>
	<path class="st0" d="M243.4,87.4l-40.9,14.9v6l1,0.6c18,11,18,14.4,18,27.3v63.2c-0.3,25.2-1,27.6-22.5,31l-1.8,0.3v8.9h76.7v-8.9
		l-1.8-0.3c-21.6-3.4-22.5-4.5-22.5-31V89.3l-5.5-2.1L243.4,87.4z"/>
	<path class="st0" d="M216.2,59.3c0,10.4,8.1,18.8,18,18.8s18-8.4,18-18.8s-8.1-18.8-18-18.8S216.2,49,216.2,59.3"/>
	<path class="st0" d="M324.9,59.8h-3.7l-45.4,47.4l3.1,4.7h19.8v86.9c0,0,0,5.8,0,6.9c0,13.1,0.5,23.5,7.1,30.1
		c4.8,4.8,12.3,7.1,23.7,7.1c15.7,0,32.1-3.5,49.9-10.6l1.7-0.7l-2.2-9.2l-2.1,0.6c-5.3,1.5-11.3,2.2-17.8,2.2
		c-32.1,0-32.1-17.1-32.1-45.4v-68H376v-18h-49v-34H324.9z"/>
	<path class="st0" d="M433.7,87.4l-38.4,14.9v5.8l0.8,0.6c14.4,10.9,14.4,14.4,14.4,27.3v63.3c-0.3,25.2-0.9,27.6-20.9,31l-1.8,0.3
		v8.8h82v-8.9l-1.9-0.2c-29.2-3.5-29.2-5.6-29.2-31v-33.1v-1.1c-0.3-17.4,2.2-46.8,22.4-48.8c5.2-0.5,11.7,4.9,16.5,8.8l3,2.4
		l1.2-0.6c8.4-4.2,17.3-13.1,17.3-22.5c0-10-7.6-17.2-18-17.2c-18.4,0-33.8,17.8-42.1,33.3c0.3-10.5,1-31.3,1-31.3l-5.6-2.1
		L433.7,87.4z"/>
	<path class="st0" d="M534.9,163.4c0-31.2,14.1-64.7,45.2-64.7c33.3,0,45.8,42.3,45.8,68.9c0,24.6-11.8,63.7-43.3,63.7
		C549.7,231.4,534.9,191.6,534.9,163.4 M501.7,165.7c0,45.4,32.3,77.1,78.6,77.1c44.1,0,78.7-34.4,78.7-78.4
		c0-45.4-32.2-77.1-78.3-77.1C535.7,87.3,501.7,121,501.7,165.7"/>
	<path class="st0" d="M710.6,0.3l-37.1,15V21l0.9,0.6c14.4,10.9,14.4,14.4,14.4,27.3v150.4c-0.3,25.2-1,27.6-22.5,31l-1.8,0.3v8.9
		h76.7v-8.9l-1.8-0.3c-21.6-3.4-22.5-4.5-22.5-31V2.1L711.4,0L710.6,0.3z"/>
	<path class="st0" d="M793.9,87.4L753,102.3v6l1,0.6c18,11,18,14.4,18,27.3v63.2c-0.3,25.2-1,27.6-22.5,31l-1.8,0.3v8.9h76.7v-8.9
		l-1.8-0.3c-21.6-3.4-22.5-4.5-22.5-31V89.3l-5.5-2.1L793.9,87.4z"/>
	<path class="st0" d="M766.7,59.3c0,10.4,8.1,18.8,18,18.8s18-8.4,18-18.8s-8.1-18.8-18-18.8C774.7,40.5,766.7,49,766.7,59.3"/>
	<path class="st0" d="M868.3,36.2c-10.5,17.6-12.3,36.1-12.7,53.6c-1.8,1.1-25.3,15.4-25.3,15.4v6.6h25.2v87.6
		c-0.3,25.2-1,27.6-23.1,31l-1.8,0.3v8.9h82.9v-8.9l-1.9-0.2c-28-3.5-28-5.6-28-31v-87.6H924v-18h-40.4V76.3
		c0-23.1,3.2-61.7,24.9-61.7c14.2,0,27.4,17.4,32.5,24.9l0.6,0.9h1.1c6.2,0.2,11.5-1.5,15-4.8c2.9-2.8,4.4-6.5,4.4-11.1
		c0-17.8-23.4-24.4-38.2-24.4C902.7,0.2,881.9,13.7,868.3,36.2"/>
	<path class="st0" d="M987.7,98.7c14.1,0,22.2,14,25.3,28c-4.5,0.2-49.3,2.2-54.3,2.4C962.4,114.5,971.9,98.7,987.7,98.7 M925.2,168
		c0,42.7,29,74.8,67.4,74.8c23.1,0,45.7-15,59.1-39.1l0.9-1.6l-7.9-6.1l-1.3,1.8c-9.7,13.6-20.5,19.7-35,19.7s-27.2-5.5-36.9-16
		c-10.2-11-15.9-26.2-15.9-42.5c0-1.7,0.1-3.4,0.2-5.1c0,0,0.9-11.4,1.1-14.4h90.5l-0.1-2.2c-1.3-30.5-20.9-50.2-50-50.2
		C956.2,87.3,925.2,122,925.2,168"/>
	<path class="st0" d="M1436.4,173.1c0.6-90.8,69.3-98.9,63.2-133.3c-7.7-43.9-149-57.6-253.8-9.8c-36,16.4-67.6,33.7-98.5,57.3
		c-7.3,5.8-9.5,12.6-10,19.2c0.5,38.6,11.9,74.6,31.1,105.1c6-8.3,12.5-17,18.6-25.1c19.6-25.8,23.2-31.2,57.9-58.8
		c69.5-55.2,178.1-83.1,186.1-59.1c7.9,23.8-37.2,42.7-37.2,107.2c0,43.2,21.1,73.5,39.6,91.8l0,0c11,9.9,14.9,6.4,22.3,2.1
		c0.5-0.3,1-0.5,1.4-0.6c13-9.2,24.9-20,35.4-31.9C1459.4,223.9,1436.2,205,1436.4,173.1"/>
</g>
</svg>
